# xmcd
#
# Track frame offsets: 
#        150
#        23145
#        44845
#        59397
#        81865
#
# Disc length: 1419 seconds
#
# Revision: 1
# Processed by: cddbd v1.5.2PL0 Copyright (c) Steve Scherf et al.
# Submitted via: ExactAudioCopyFreeDBPlugin 1.0
#
DISCID=3e058905
DTITLE=COWBOY JUNKIES - One Soul Now Bonus EP: 'Neath your covers, par
DTITLE=t 1'
DYEAR=2004
DGENRE=Country
TTITLE0=Thunder road [Bruce Springsteen]
TTITLE1=Seventeen seconds [The Cure]
TTITLE2=Lungs [Townes Van Zandt]
TTITLE3=Darkness, darkness [Jesse Colin Young]
TTITLE4=Helpless [Neil Young]
EXTD=YEAR: 2004
EXTT0=
EXTT1=
EXTT2=
EXTT3=
EXTT4=
PLAYORDER=
